<?xml version="1.0" encoding="UTF-8"?>
<svg id="_Слой_1" data-name="Слой 1" width='150' xmlns="http://www.w3.org/2000/svg" viewBox="0 0 1000 1000">
  <defs>
    <style>
      .cls-1 {
        fill: #899293;
      }

      .cls-1, .cls-2, .cls-3, .cls-4 {
        stroke: #000;
        stroke-miterlimit: 10;
        stroke-width: .5px;
      }

      .cls-2 {
        fill: #ccd7d8;
      }

      .cls-3 {
        fill: #e3e7eb;
      }

      .cls-4 {
        fill: #b6c1c4;
      }
    </style>
  </defs>
  <polygon class="cls-1" points="395.78 486.55 366.08 477.63 311.5 510.92 396 535.25 395.78 486.55"/>
  <polygon class="cls-3" points="396 536.75 311 512.75 311 629.75 396 653.75 396 536.75"/>
  <polygon class="cls-4" points="397.5 537.25 443 550.15 443 667.25 397.5 654.35 397.5 537.25"/>
  <polygon class="cls-4" points="397.5 452.75 443 407.75 443 548.25 397.5 535.35 397.5 452.75"/>
  <polygon class="cls-3" points="499 316.75 445 371.75 445 548.75 499 564.75 499 316.75"/>
  <polygon class="cls-3" points="499 567.25 445 551.25 445 668.25 499 683.25 499 567.25"/>
  <polygon class="cls-1" points="604.22 486.55 633.92 477.63 688.5 510.92 604 535.25 604.22 486.55"/>
  <polygon class="cls-3" points="604 536.75 689 512.75 689 629.75 604 653.75 604 536.75"/>
  <polygon class="cls-4" points="602.5 537.25 557 550.15 557 667.25 602.5 654.35 602.5 537.25"/>
  <polygon class="cls-4" points="602.5 452.75 557 407.75 557 548.25 602.5 535.35 602.5 452.75"/>
  <polygon class="cls-3" points="501 316.75 555 371.75 555 548.75 501 564.75 501 316.75"/>
  <polygon class="cls-3" points="501 567.25 555 551.25 555 668.25 501 683.25 501 567.25"/>
  <g>
    <path class="cls-2" d="M396.1,744.66c-3.39,0-6.16-1.08-8.32-3.24-1.6-1.6-2.65-3.61-3.16-6.04-2.53,1.92-5.64,2.88-9.32,2.88-2.91,0-5.55-.63-7.94-1.9s-4.25-3.01-5.6-5.22c-1.35-2.21-2.02-4.71-2.02-7.48s.67-5.27,2.02-7.5c1.35-2.23,3.21-3.95,5.58-5.18,2.37-1.23,5.03-1.84,7.96-1.84,3.68,0,6.92,.91,9.72,2.72l.8,5.64h-.36c-.8-3.09-2.61-5.2-5.44-6.32-1.39-.56-2.96-.84-4.72-.84-3.6,0-6.59,1.25-8.98,3.76s-3.58,5.69-3.58,9.54,1.2,7.05,3.6,9.58c2.4,2.53,5.39,3.81,8.96,3.84,1.73,0,3.39-.31,4.96-.92,1.57-.61,2.92-1.47,4.04-2.56v-7.08c0-.59-.17-1.03-.52-1.34s-.84-.46-1.48-.46h-.64v-.4h7.84v.4h-.6c-.67,0-1.17,.15-1.52,.46-.35,.31-.51,.75-.48,1.34v6.16c.16,4.21,1.53,7.23,4.12,9.04,1.81,1.28,4.16,1.92,7.04,1.92,1.2,0,2.51-.12,3.92-.36l.04,.4c-2.13,.67-4.11,1-5.92,1Z"/>
    <path class="cls-2" d="M419.82,737.3h.32v.4h-9v-.4h.36c.56,0,.98-.18,1.26-.54,.28-.36,.42-.7,.42-1.02s-.05-.64-.16-.96l-2.56-6.8h-10.8l-2.68,6.84c-.11,.32-.16,.63-.16,.94s.14,.64,.42,1c.28,.36,.7,.54,1.26,.54h.36v.4h-8.04v-.4h.36c.67,0,1.32-.21,1.96-.64,.64-.43,1.16-1.05,1.56-1.88l9.04-21.52c.99-2.16,1.48-3.53,1.48-4.12h.36l10.72,25.64c.37,.83,.88,1.45,1.52,1.88,.64,.43,1.31,.64,2,.64Zm-19.68-10.52h9.84l-4.8-12.84-5.04,12.84Z"/>
    <path class="cls-2" d="M430.3,710.94h-2.56v23.84c0,.69,.25,1.29,.74,1.78s1.1,.74,1.82,.74h.48l.04,.4h-8.76v-.4h.52c.69,0,1.29-.24,1.78-.72,.49-.48,.75-1.07,.78-1.76v-22.2c-.03-.69-.29-1.29-.78-1.78-.49-.49-1.09-.74-1.78-.74h-.52v-.4h10.8c2.43,0,4.33,.67,5.72,2.02,1.39,1.35,2.08,3.09,2.08,5.24s-.66,4-1.98,5.56c-1.32,1.56-2.93,2.34-4.82,2.34,.4,.19,.87,.55,1.42,1.1,.55,.55,1.03,1.11,1.46,1.7,2.29,3.28,3.79,5.3,4.48,6.06,.69,.76,1.19,1.28,1.48,1.56,.29,.28,.61,.55,.96,.82,.35,.27,.69,.48,1.04,.64,.77,.37,1.6,.56,2.48,.56v.4h-2.2c-1.15,0-2.21-.21-3.2-.62-.99-.41-1.73-.84-2.22-1.28-.49-.44-.92-.87-1.28-1.28-.36-.41-1.35-1.79-2.98-4.14-1.63-2.35-2.57-3.69-2.84-4.02-.27-.33-.55-.66-.84-.98-.85-.91-1.71-1.36-2.56-1.36v-.4c.21,.03,.49,.04,.84,.04s.77-.01,1.28-.04c3.31-.08,5.39-1.47,6.24-4.16,.16-.53,.24-1.03,.24-1.5v-.9c-.05-1.79-.52-3.23-1.4-4.32-.88-1.09-2.07-1.68-3.56-1.76-.64-.03-1.44-.04-2.4-.04Z"/>
    <path class="cls-2" d="M448.46,737.3c.69,0,1.29-.25,1.78-.74,.49-.49,.75-1.09,.78-1.78v-22.2c-.03-.69-.29-1.28-.78-1.76-.49-.48-1.09-.72-1.78-.72h-.52v-.4h8.76v.4h-.52c-.69,0-1.29,.24-1.78,.72-.49,.48-.75,1.07-.78,1.76v22.2c0,.69,.25,1.29,.76,1.78s1.11,.74,1.8,.74h.52v.4h-8.76v-.4h.52Z"/>
    <path class="cls-2" d="M469.7,737.3h.52v.4h-8.76v-.4h.52c.69,0,1.29-.25,1.78-.74,.49-.49,.75-1.09,.78-1.78v-22.2c-.03-.69-.29-1.28-.78-1.76-.49-.48-1.09-.72-1.78-.72h-.52v-.4h8.76v.4h-.52c-.69,0-1.29,.24-1.78,.72-.49,.48-.75,1.07-.78,1.76v22.2c0,.69,.25,1.29,.76,1.78s1.11,.74,1.8,.74Zm16.08,.4h-1.72c-2.72,0-4.72-.76-6-2.28l-9.64-11.64,9.44-11.84c.21-.27,.32-.51,.32-.72s-.04-.4-.12-.56c-.21-.4-.6-.6-1.16-.6h-.4v-.36h8.44v.36h-.16c-1.76,0-3.2,.63-4.32,1.88l-9.4,10.88,10.92,12.84c1.07,1.07,2.33,1.61,3.8,1.64v.4Z"/>
    <path class="cls-2" d="M534.1,744.66c-3.39,0-6.16-1.08-8.32-3.24-1.6-1.6-2.65-3.61-3.16-6.04-2.53,1.92-5.64,2.88-9.32,2.88-2.91,0-5.55-.63-7.94-1.9s-4.25-3.01-5.6-5.22c-1.35-2.21-2.02-4.71-2.02-7.48s.67-5.27,2.02-7.5,3.21-3.95,5.58-5.18c2.37-1.23,5.03-1.84,7.96-1.84,3.68,0,6.92,.91,9.72,2.72l.8,5.64h-.36c-.8-3.09-2.61-5.2-5.44-6.32-1.39-.56-2.96-.84-4.72-.84-3.6,0-6.59,1.25-8.98,3.76-2.39,2.51-3.58,5.69-3.58,9.54s1.2,7.05,3.6,9.58c2.4,2.53,5.39,3.81,8.96,3.84,1.73,0,3.39-.31,4.96-.92s2.92-1.47,4.04-2.56v-7.08c0-.59-.17-1.03-.52-1.34-.35-.31-.84-.46-1.48-.46h-.64v-.4h7.84v.4h-.6c-.67,0-1.17,.15-1.52,.46s-.51,.75-.48,1.34v6.16c.16,4.21,1.53,7.23,4.12,9.04,1.81,1.28,4.16,1.92,7.04,1.92,1.2,0,2.51-.12,3.92-.36l.04,.4c-2.13,.67-4.11,1-5.92,1Z"/>
    <path class="cls-2" d="M539.82,710.94h-2.56v23.84c0,.69,.25,1.29,.74,1.78,.49,.49,1.1,.74,1.82,.74h.48l.04,.4h-8.76v-.4h.52c.69,0,1.29-.24,1.78-.72,.49-.48,.75-1.07,.78-1.76v-22.2c-.03-.69-.29-1.29-.78-1.78-.49-.49-1.09-.74-1.78-.74h-.52v-.4h10.8c2.43,0,4.33,.67,5.72,2.02,1.39,1.35,2.08,3.09,2.08,5.24s-.66,4-1.98,5.56c-1.32,1.56-2.93,2.34-4.82,2.34,.4,.19,.87,.55,1.42,1.1,.55,.55,1.03,1.11,1.46,1.7,2.29,3.28,3.79,5.3,4.48,6.06,.69,.76,1.19,1.28,1.48,1.56,.29,.28,.61,.55,.96,.82s.69,.48,1.04,.64c.77,.37,1.6,.56,2.48,.56v.4h-2.2c-1.15,0-2.21-.21-3.2-.62-.99-.41-1.73-.84-2.22-1.28-.49-.44-.92-.87-1.28-1.28s-1.35-1.79-2.98-4.14c-1.63-2.35-2.57-3.69-2.84-4.02-.27-.33-.55-.66-.84-.98-.85-.91-1.71-1.36-2.56-1.36v-.4c.21,.03,.49,.04,.84,.04s.77-.01,1.28-.04c3.31-.08,5.39-1.47,6.24-4.16,.16-.53,.24-1.03,.24-1.5v-.9c-.05-1.79-.52-3.23-1.4-4.32-.88-1.09-2.07-1.68-3.56-1.76-.64-.03-1.44-.04-2.4-.04Z"/>
    <path class="cls-2" d="M560.34,713.16c2.85-2.68,6.55-4.02,11.1-4.02s8.25,1.34,11.1,4.02,4.28,6.19,4.28,10.54-1.43,7.86-4.28,10.54-6.55,4.02-11.1,4.02-8.25-1.34-11.1-4.02-4.28-6.19-4.28-10.54,1.43-7.86,4.28-10.54Zm2.18,20.22c2.25,2.45,5.22,3.68,8.9,3.68s6.65-1.23,8.9-3.68c2.25-2.45,3.38-5.68,3.38-9.68s-1.13-7.23-3.38-9.68c-2.25-2.45-5.22-3.68-8.9-3.68s-6.65,1.23-8.9,3.68c-2.25,2.45-3.38,5.68-3.38,9.68s1.13,7.23,3.38,9.68Z"/>
    <path class="cls-2" d="M617.18,710.1h-.64c-.56,0-1.05,.18-1.46,.54-.41,.36-.63,.81-.66,1.34v15.84c0,3.12-.99,5.64-2.96,7.56s-4.6,2.88-7.88,2.88-5.94-.95-7.98-2.86-3.06-4.42-3.06-7.54v-15.76c0-.8-.35-1.39-1.04-1.76-.32-.16-.68-.24-1.08-.24h-.64v-.4h8.12v.4h-.64c-.59,0-1.08,.18-1.48,.54-.4,.36-.61,.82-.64,1.38v15.28c0,2.91,.78,5.25,2.34,7.04,1.56,1.79,3.65,2.68,6.26,2.68s4.73-.85,6.36-2.54c1.63-1.69,2.44-3.91,2.44-6.66v-15.8c-.03-.56-.24-1.02-.64-1.38-.4-.36-.89-.54-1.48-.54h-.64v-.4h7.4v.4Z"/>
    <path class="cls-2" d="M640.26,717.42c0,1.17-.24,2.27-.72,3.28-.88,1.89-2.43,3.21-4.64,3.96-.77,.27-1.44,.4-2,.4-1.65,0-3.08-.31-4.28-.92v-.4c1.95,.43,3.75,.21,5.4-.64,1.47-.75,2.47-1.97,3-3.68,.16-.53,.24-1.04,.24-1.52v-.88c-.05-1.87-.55-3.35-1.48-4.46s-2.24-1.66-3.92-1.66h-4.6v23.88c.03,.69,.29,1.29,.78,1.78,.49,.49,1.09,.74,1.78,.74h.52v.4h-8.76v-.4h.52c.69,0,1.29-.25,1.78-.74,.49-.49,.75-1.09,.78-1.78v-22.36c-.08-.67-.36-1.22-.84-1.66-.48-.44-1.05-.66-1.72-.66h-.48l-.04-.4h10.44c2.56,0,4.57,.69,6.04,2.06,1.47,1.37,2.2,3.26,2.2,5.66Z"/>
  </g>
</svg>